# xmcd
#
# Track frame offsets:
#	152
#	11792
#	26197
#	37705
#	47423
#	59941
#	70047
#	84784
#
# Disc length: 1290 seconds
#
# Revision: 1
# Processed by: cddbd v1.4PL0 Copyright (c) Steve Scherf et al.
# Submitted via: audiograbber 1.80
#
DISCID=5e050808
DTITLE=Charlie Shavers - House of Blues Sampler
DYEAR=1900
DGENRE=
TTITLE0=Kidney Stew
TTITLE1=Serenade to a Pair of Nylons
TTITLE2=Shavers Shivers
TTITLE3=The Cuttin' Out Blues
TTITLE4=Your Daddy's got the Gleeks
TTITLE5=At the Fat Man's
TTITLE6=Deuce-A-Rini
TTITLE7=On the Spot
EXTD=
EXTT0=
EXTT1=
EXTT2=
EXTT3=
EXTT4=
EXTT5=
EXTT6=
EXTT7=
PLAYORDER=
